<mxfile host="65bd71144e">
    <diagram id="9_13u_5X1s0VoD0Ztq1t" name="Page-1">
        <mxGraphModel dx="534" dy="244" grid="0" gridSize="10" guides="1" tooltips="1" connect="1" arrows="1" fold="1" page="1" pageScale="1" pageWidth="827" pageHeight="1169" background="#ffffff" math="0" shadow="0">
            <root>
                <mxCell id="0"/>
                <mxCell id="1" parent="0"/>
                <mxCell id="13" style="edgeStyle=none;html=1;strokeColor=#000000;entryX=0.1;entryY=0.2;entryDx=0;entryDy=0;entryPerimeter=0;startArrow=none;" edge="1" parent="1" source="32" target="5">
                    <mxGeometry relative="1" as="geometry">
                        <mxPoint x="141.5" y="231" as="sourcePoint"/>
                        <mxPoint x="267.5" y="272" as="targetPoint"/>
                    </mxGeometry>
                </mxCell>
                <mxCell id="30" style="edgeStyle=none;html=1;strokeColor=#000000;fontSize=9;fontColor=#000000;startArrow=none;startFill=0;endArrow=classic;endFill=1;exitX=1;exitY=0.2;exitDx=0;exitDy=0;exitPerimeter=0;" edge="1" parent="1" source="4">
                    <mxGeometry relative="1" as="geometry">
                        <mxPoint x="133" y="197" as="sourcePoint"/>
                        <mxPoint x="253" y="133" as="targetPoint"/>
                    </mxGeometry>
                </mxCell>
                <mxCell id="4" value="" style="points=[[0.35,0,0],[0.98,0.51,0],[1,0.71,0],[0.67,1,0],[0,0.795,0],[0,0.65,0]];verticalLabelPosition=bottom;sketch=0;html=1;verticalAlign=top;aspect=fixed;align=center;pointerEvents=1;shape=mxgraph.cisco19.user;fillColor=#005073;strokeColor=none;" vertex="1" parent="1">
                    <mxGeometry x="79" y="187" width="50" height="50" as="geometry"/>
                </mxCell>
                <mxCell id="12" style="edgeStyle=none;html=1;dashed=1;dashPattern=1 2;strokeColor=#000000;" edge="1" parent="1">
                    <mxGeometry relative="1" as="geometry">
                        <mxPoint x="128" y="249" as="targetPoint"/>
                        <mxPoint x="255" y="305" as="sourcePoint"/>
                    </mxGeometry>
                </mxCell>
                <mxCell id="5" value="" style="sketch=0;html=1;dashed=0;whitespace=wrap;fillColor=#2875E2;strokeColor=#ffffff;points=[[0.005,0.63,0],[0.1,0.2,0],[0.9,0.2,0],[0.5,0,0],[0.995,0.63,0],[0.72,0.99,0],[0.5,1,0],[0.28,0.99,0]];verticalLabelPosition=bottom;align=center;verticalAlign=top;shape=mxgraph.kubernetes.icon;prIcon=api" vertex="1" parent="1">
                    <mxGeometry x="258" y="276" width="50" height="48" as="geometry"/>
                </mxCell>
                <mxCell id="31" style="edgeStyle=none;html=1;strokeColor=#000000;fontSize=9;fontColor=#000000;startArrow=none;startFill=0;endArrow=classic;endFill=1;dashed=1;" edge="1" parent="1" source="6">
                    <mxGeometry relative="1" as="geometry">
                        <mxPoint x="139.93988037109375" y="217.8096759502704" as="targetPoint"/>
                    </mxGeometry>
                </mxCell>
                <mxCell id="6" value="" style="editableCssRules=.*;shape=image;verticalLabelPosition=bottom;labelBackgroundColor=#ffffff;verticalAlign=top;aspect=fixed;imageAspect=0;image=data:image/svg+xml,PHN2ZyB4bWxucz0iaHR0cDovL3d3dy53My5vcmcvMjAwMC9zdmciIHhtbG5zOnY9Imh0dHBzOi8vdmVjdGEuaW8vbmFubyIgd2lkdGg9IjMxMC43NzU2MDY1NDM4NjAyNSIgaGVpZ2h0PSIzNzcuOTUzMDI4ODM1NTI1NDYiIHZpZXdCb3g9Ii0wLjE0MDAwMDAwMDU5NjA0NjQ1IC0wLjQ2NzAwMDAwNzYyOTM5NDUzIDgyLjIyNTk5NzkyNDgwNDY5IDEwMC4wMDAwMDc2MjkzOTQ1MyI+JiN4YTs8c3R5bGUgdHlwZT0idGV4dC9jc3MiPiYjeGE7CS5zdDB7ZmlsbDojNDI4NWY0O30mI3hhOwkuc3Qxe2ZpbGw6IzY2OWRmNjt9JiN4YTsJLnN0MntmaWxsOiNmZmY7fSYjeGE7PC9zdHlsZT4mI3hhOwk8cGF0aCBjbGFzcz0ic3QwIiBkPSJNNDAuOTczLS40NjdsNDEuMTEzIDE3LjQ5M3YyOS42NTRjMCAyNy40MTgtMjQuNjA4IDUwLjgzNi00MS4xMTMgNTIuODUzeiIvPiYjeGE7CTxwYXRoIGNsYXNzPSJzdDEiIGQ9Ik00MC45NzMtLjQ2N0wtLjE0IDE3LjAyNXYyOS42NTRjMCAyNy40MTggMjQuNjA4IDUwLjgzNiA0MS4xMTMgNTIuODUzeiIvPiYjeGE7CTxwYXRoIGNsYXNzPSJzdDIiIGQ9Ik00MS4yNTMgMTYuNjA1Yy05LjU4NCAwLTE3LjQ0NSA3Ljg2Mi0xNy40NDUgMTcuNDQ1IDAgOC4wODQgNS41OTQgMTQuOTQyIDEzLjA5NiAxNi44OTF2OS40ODhoLTkuODY5djguNzAxaDkuODY5djUuMzc3aC02LjMxNXY4LjcwMWg2LjMxNXYyLjE5N2g4LjcwMVY1MC45NDFDNTMuMTA2IDQ4Ljk5MiA1OC43IDQyLjEzNCA1OC43IDM0LjA1YzAtOS41ODQtNy44NjMtMTcuNDQ1LTE3LjQ0Ny0xNy40NDV6bTAgOC42OTlBOC42OCA4LjY4IDAgMCAxIDUwIDM0LjA1YTguNjggOC42OCAwIDAgMS04Ljc0OCA4Ljc0NiA4LjY4IDguNjggMCAwIDEtOC43NDYtOC43NDYgOC42OCA4LjY4IDAgMCAxIDguNzQ2LTguNzQ2eiIvPiYjeGE7PC9zdmc+;" vertex="1" parent="1">
                    <mxGeometry x="263" y="117" width="40" height="50" as="geometry"/>
                </mxCell>
                <mxCell id="7" value="" style="html=1;verticalLabelPosition=bottom;align=center;labelBackgroundColor=#ffffff;verticalAlign=top;strokeWidth=2;strokeColor=#006EAF;shadow=0;dashed=0;shape=mxgraph.ios7.icons.data;fillColor=#1ba1e2;fontColor=#ffffff;" vertex="1" parent="1">
                    <mxGeometry x="442" y="189.72" width="35" height="44.55" as="geometry"/>
                </mxCell>
                <mxCell id="16" style="edgeStyle=none;html=1;strokeColor=#000000;startArrow=classic;startFill=1;" edge="1" parent="1">
                    <mxGeometry relative="1" as="geometry">
                        <mxPoint x="431" y="229.82" as="targetPoint"/>
                        <mxPoint x="308" y="292.68538461538463" as="sourcePoint"/>
                    </mxGeometry>
                </mxCell>
                <mxCell id="34" value="&lt;span style=&quot;&quot;&gt;⑤Token Verification&lt;/span&gt;" style="edgeLabel;html=1;align=center;verticalAlign=middle;resizable=0;points=[];fontSize=9;fontColor=#000000;labelBackgroundColor=none;" vertex="1" connectable="0" parent="16">
                    <mxGeometry x="-0.0689" y="1" relative="1" as="geometry">
                        <mxPoint x="17" y="18" as="offset"/>
                    </mxGeometry>
                </mxCell>
                <mxCell id="17" style="edgeStyle=none;html=1;strokeColor=#000000;startArrow=classic;startFill=1;" edge="1" parent="1">
                    <mxGeometry relative="1" as="geometry">
                        <mxPoint x="308" y="143" as="sourcePoint"/>
                        <mxPoint x="434" y="198" as="targetPoint"/>
                    </mxGeometry>
                </mxCell>
                <mxCell id="18" value="&lt;font color=&quot;#000000&quot;&gt;Auth server&lt;/font&gt;" style="text;html=1;align=center;verticalAlign=middle;resizable=0;points=[];autosize=1;strokeColor=none;fillColor=none;" vertex="1" parent="1">
                    <mxGeometry x="243.5" y="88" width="79" height="26" as="geometry"/>
                </mxCell>
                <mxCell id="19" value="&lt;font color=&quot;#000000&quot;&gt;Resource server&lt;/font&gt;" style="text;html=1;align=center;verticalAlign=middle;resizable=0;points=[];autosize=1;strokeColor=none;fillColor=none;" vertex="1" parent="1">
                    <mxGeometry x="230" y="324" width="106" height="26" as="geometry"/>
                </mxCell>
                <mxCell id="22" value="&lt;font style=&quot;font-size: 9px;&quot;&gt;①Registration or Login&lt;/font&gt;" style="text;html=1;align=center;verticalAlign=middle;resizable=0;points=[];autosize=1;strokeColor=none;fillColor=none;fontColor=#000000;" vertex="1" parent="1">
                    <mxGeometry x="102" y="137" width="110" height="26" as="geometry"/>
                </mxCell>
                <mxCell id="23" value="&lt;font style=&quot;font-size: 9px;&quot;&gt;③Generate API token&lt;/font&gt;" style="text;html=1;align=center;verticalAlign=middle;resizable=0;points=[];autosize=1;strokeColor=none;fillColor=none;fontColor=#000000;" vertex="1" parent="1">
                    <mxGeometry x="202" y="171" width="106" height="26" as="geometry"/>
                </mxCell>
                <mxCell id="26" value="&lt;font style=&quot;font-size: 9px;&quot;&gt;④API request with API token&lt;/font&gt;" style="text;html=1;align=center;verticalAlign=middle;resizable=0;points=[];autosize=1;strokeColor=none;fillColor=none;fontColor=#000000;" vertex="1" parent="1">
                    <mxGeometry x="159" y="223" width="134" height="26" as="geometry"/>
                </mxCell>
                <mxCell id="24" value="" style="aspect=fixed;perimeter=ellipsePerimeter;html=1;align=center;shadow=0;dashed=0;spacingTop=3;image;image=img/lib/active_directory/key.svg;labelBackgroundColor=#FFFFFF;labelBorderColor=none;fontSize=9;fontColor=#000000;" vertex="1" parent="1">
                    <mxGeometry x="192" y="182" width="25" height="18.5" as="geometry"/>
                </mxCell>
                <mxCell id="33" value="" style="edgeStyle=none;html=1;strokeColor=#000000;entryX=0.1;entryY=0.2;entryDx=0;entryDy=0;entryPerimeter=0;endArrow=none;" edge="1" parent="1" target="32">
                    <mxGeometry relative="1" as="geometry">
                        <mxPoint x="141.5" y="231.00000000000006" as="sourcePoint"/>
                        <mxPoint x="263" y="285.6" as="targetPoint"/>
                    </mxGeometry>
                </mxCell>
                <mxCell id="32" value="" style="aspect=fixed;perimeter=ellipsePerimeter;html=1;align=center;shadow=0;dashed=0;spacingTop=3;image;image=img/lib/active_directory/key.svg;labelBackgroundColor=#FFFFFF;labelBorderColor=none;fontSize=9;fontColor=#000000;" vertex="1" parent="1">
                    <mxGeometry x="197" y="252" width="25" height="18.5" as="geometry"/>
                </mxCell>
                <mxCell id="35" value="&lt;font style=&quot;font-size: 9px;&quot;&gt;⑥API response&lt;/font&gt;" style="text;html=1;align=center;verticalAlign=middle;resizable=0;points=[];autosize=1;strokeColor=none;fillColor=none;fontColor=#000000;" vertex="1" parent="1">
                    <mxGeometry x="141" y="276" width="81" height="26" as="geometry"/>
                </mxCell>
                <mxCell id="36" value="&lt;span style=&quot;&quot;&gt;②User Authentication&lt;/span&gt;" style="edgeLabel;html=1;align=center;verticalAlign=middle;resizable=0;points=[];fontSize=9;fontColor=#000000;labelBackgroundColor=none;" vertex="1" connectable="0" parent="1">
                    <mxGeometry x="385.99865036927747" y="152.00007092883217" as="geometry"/>
                </mxCell>
                <mxCell id="41" value="User" style="text;html=1;align=center;verticalAlign=middle;resizable=0;points=[];autosize=1;strokeColor=none;fillColor=none;fontSize=9;fontColor=#000000;" vertex="1" parent="1">
                    <mxGeometry x="77" y="167" width="37" height="23" as="geometry"/>
                </mxCell>
                <mxCell id="42" value="DB" style="text;html=1;align=center;verticalAlign=middle;resizable=0;points=[];autosize=1;strokeColor=none;fillColor=none;fontSize=9;fontColor=#000000;labelBackgroundColor=none;labelBorderColor=none;" vertex="1" parent="1">
                    <mxGeometry x="444" y="171" width="31" height="23" as="geometry"/>
                </mxCell>
            </root>
        </mxGraphModel>
    </diagram>
</mxfile>
